# xmcd
#
# Track frame offsets: 
#        150
#        13080
#        26162
#        38335
#        58976
#        76108
#        88541
#        101206
#        119774
#        136814
#        151354
#        164465
#        175148
#        186782
#
# Disc length: 2667 seconds
#
# Revision: 3
# Processed by: cddbd v1.5.2PL0 Copyright (c) Steve Scherf et al.
# Submitted via: ExactAudioCopyFreeDBPlugin 1.0
#
DISCID=b30a690e
DTITLE=Various Artist - Natale in Jazz
DYEAR=2001
DGENRE=Jazz
TTITLE0=Ella Fitzgerald  - Rudolph, The Red-Nosed Reindeer
TTITLE1=Louis Armstrong - Christmas In New Orleans
TTITLE2=Dinah Washington - Ole Santa
TTITLE3=Joe Williams - Let it Snow! Let It Snow! Let It Snow!
TTITLE4=John Coltrane  - Greensleevers
TTITLE5=Mel Tormé - The Christmas Song
TTITLE6=Louis Armstrong - Zat Tou, Santa Claus?
TTITLE7=Shirley Horn  - Winter Wonderland
TTITLE8=Bill Evans - Santa Claus Is Comin' To Town
TTITLE9=Count Basie - Good Morning blues
TTITLE10=Lionel Hampton - Swingle Jingle
TTITLE11=Dinah Washington - Silent Night
TTITLE12=Oscar Peterson - A Child Is Born
TTITLE13=Ella Fitzgerald - Have Yourself A Merry Little Christmas
EXTD=YEAR: 2001
EXTT0=
EXTT1=
EXTT2=
EXTT3=
EXTT4=
EXTT5=
EXTT6=
EXTT7=
EXTT8=
EXTT9=
EXTT10=
EXTT11=
EXTT12=
EXTT13=
PLAYORDER=
